<svg width="166" height="47" viewBox="0 0 166 47" fill="none" xmlns="http://www.w3.org/2000/svg">
<g filter="url(#filter0_bdddd_137_11400)">
<path d="M7 15C7 7.26801 13.268 1 21 1H144.831C152.563 1 158.831 7.26801 158.831 15C158.831 22.732 152.563 29 144.831 29H21C13.268 29 7 22.732 7 15Z" fill="white"/>
<path d="M7.5 15C7.5 7.54416 13.5442 1.5 21 1.5H144.831C152.287 1.5 158.331 7.54416 158.331 15C158.331 22.4558 152.287 28.5 144.831 28.5H21C13.5441 28.5 7.5 22.4558 7.5 15Z" stroke="#E8E8EC"/>
<path d="M20.1186 20V9.81818H23.7479C24.54 9.81818 25.1963 9.96236 25.7166 10.2507C26.237 10.5391 26.6264 10.9335 26.8849 11.4339C27.1435 11.9311 27.2727 12.4912 27.2727 13.1143C27.2727 13.7408 27.1418 14.3042 26.88 14.8047C26.6214 15.3018 26.2304 15.6963 25.7067 15.9879C25.1863 16.2763 24.5317 16.4205 23.7429 16.4205H21.2472V15.1179H23.6037C24.1042 15.1179 24.5102 15.0317 24.8217 14.8594C25.1333 14.6837 25.362 14.4451 25.5078 14.1435C25.6536 13.8419 25.7266 13.4988 25.7266 13.1143C25.7266 12.7299 25.6536 12.3885 25.5078 12.0902C25.362 11.7919 25.1316 11.5582 24.8168 11.3892C24.5052 11.2202 24.0942 11.1357 23.5838 11.1357H21.6548V20H20.1186ZM32.0753 20.1541C31.3594 20.1541 30.7346 19.9901 30.201 19.6619C29.6674 19.3338 29.2531 18.8748 28.9581 18.2848C28.6631 17.6948 28.5156 17.0054 28.5156 16.2166C28.5156 15.4245 28.6631 14.7318 28.9581 14.1385C29.2531 13.5452 29.6674 13.0845 30.201 12.7564C30.7346 12.4283 31.3594 12.2642 32.0753 12.2642C32.7912 12.2642 33.416 12.4283 33.9496 12.7564C34.4832 13.0845 34.8975 13.5452 35.1925 14.1385C35.4875 14.7318 35.6349 15.4245 35.6349 16.2166C35.6349 17.0054 35.4875 17.6948 35.1925 18.2848C34.8975 18.8748 34.4832 19.3338 33.9496 19.6619C33.416 19.9901 32.7912 20.1541 32.0753 20.1541ZM32.0803 18.9062C32.5443 18.9062 32.9287 18.7836 33.2337 18.5384C33.5386 18.2931 33.764 17.9666 33.9098 17.5589C34.0589 17.1513 34.1335 16.7022 34.1335 16.2116C34.1335 15.7244 34.0589 15.277 33.9098 14.8693C33.764 14.4583 33.5386 14.1286 33.2337 13.88C32.9287 13.6314 32.5443 13.5071 32.0803 13.5071C31.6129 13.5071 31.2251 13.6314 30.9169 13.88C30.612 14.1286 30.3849 14.4583 30.2358 14.8693C30.09 15.277 30.017 15.7244 30.017 16.2116C30.017 16.7022 30.09 17.1513 30.2358 17.5589C30.3849 17.9666 30.612 18.2931 30.9169 18.5384C31.2251 18.7836 31.6129 18.9062 32.0803 18.9062ZM38.7173 20L36.4702 12.3636H38.0064L39.5028 17.9716H39.5774L41.0788 12.3636H42.6151L44.1065 17.9467H44.1811L45.6676 12.3636H47.2038L44.9616 20H43.4453L41.8942 14.4865H41.7798L40.2287 20H38.7173ZM51.6733 20.1541C50.9209 20.1541 50.273 19.9934 49.7294 19.6719C49.1892 19.3471 48.7715 18.8913 48.4766 18.3047C48.1849 17.7147 48.0391 17.0237 48.0391 16.2315C48.0391 15.4493 48.1849 14.7599 48.4766 14.1634C48.7715 13.5668 49.1825 13.1011 49.7095 12.7663C50.2398 12.4316 50.8596 12.2642 51.5689 12.2642C51.9998 12.2642 52.4174 12.3355 52.8217 12.478C53.2261 12.6205 53.589 12.8442 53.9105 13.1491C54.232 13.4541 54.4856 13.8501 54.6712 14.3374C54.8568 14.8213 54.9496 15.4096 54.9496 16.1023V16.6293H48.8793V15.5156H53.4929C53.4929 15.1245 53.4134 14.7782 53.2543 14.4766C53.0952 14.1716 52.8714 13.9313 52.5831 13.7557C52.2981 13.58 51.9633 13.4922 51.5788 13.4922C51.1612 13.4922 50.7966 13.5949 50.4851 13.8004C50.1768 14.0026 49.9382 14.2678 49.7692 14.5959C49.6035 14.9207 49.5206 15.2737 49.5206 15.6548V16.5249C49.5206 17.0353 49.6101 17.4695 49.7891 17.8274C49.9714 18.1854 50.2249 18.4588 50.5497 18.6477C50.8745 18.8333 51.254 18.9261 51.6882 18.9261C51.9699 18.9261 52.2268 18.8864 52.4588 18.8068C52.6908 18.724 52.8913 18.6013 53.0604 18.4389C53.2294 18.2765 53.3587 18.076 53.4482 17.8374L54.8551 18.0909C54.7424 18.5052 54.5402 18.8681 54.2486 19.1797C53.9602 19.4879 53.5973 19.7282 53.1598 19.9006C52.7256 20.0696 52.2301 20.1541 51.6733 20.1541ZM56.5989 20V12.3636H58.0357V13.5767H58.1152C58.2544 13.1657 58.4997 12.8426 58.851 12.6072C59.2057 12.3686 59.6067 12.2493 60.0542 12.2493C60.147 12.2493 60.2563 12.2526 60.3823 12.2592C60.5115 12.2659 60.6126 12.2741 60.6855 12.2841V13.706C60.6259 13.6894 60.5198 13.6712 60.3674 13.6513C60.2149 13.6281 60.0624 13.6165 59.91 13.6165C59.5587 13.6165 59.2454 13.6911 58.9703 13.8402C58.6986 13.986 58.4831 14.1899 58.324 14.4517C58.165 14.7102 58.0854 15.0052 58.0854 15.3366V20H56.5989ZM64.9897 20.1541C64.2373 20.1541 63.5894 19.9934 63.0458 19.6719C62.5056 19.3471 62.0879 18.8913 61.793 18.3047C61.5013 17.7147 61.3555 17.0237 61.3555 16.2315C61.3555 15.4493 61.5013 14.7599 61.793 14.1634C62.0879 13.5668 62.4989 13.1011 63.0259 12.7663C63.5562 12.4316 64.176 12.2642 64.8853 12.2642C65.3162 12.2642 65.7338 12.3355 66.1381 12.478C66.5425 12.6205 66.9054 12.8442 67.2269 13.1491C67.5484 13.4541 67.802 13.8501 67.9876 14.3374C68.1732 14.8213 68.266 15.4096 68.266 16.1023V16.6293H62.1957V15.5156H66.8093C66.8093 15.1245 66.7298 14.7782 66.5707 14.4766C66.4116 14.1716 66.1879 13.9313 65.8995 13.7557C65.6145 13.58 65.2797 13.4922 64.8952 13.4922C64.4776 13.4922 64.113 13.5949 63.8015 13.8004C63.4933 14.0026 63.2546 14.2678 63.0856 14.5959C62.9199 14.9207 62.837 15.2737 62.837 15.6548V16.5249C62.837 17.0353 62.9265 17.4695 63.1055 17.8274C63.2878 18.1854 63.5413 18.4588 63.8661 18.6477C64.1909 18.8333 64.5704 18.9261 65.0046 18.9261C65.2863 18.9261 65.5432 18.8864 65.7752 18.8068C66.0072 18.724 66.2077 18.6013 66.3768 18.4389C66.5458 18.2765 66.6751 18.076 66.7646 17.8374L68.1715 18.0909C68.0588 18.5052 67.8567 18.8681 67.565 19.1797C67.2766 19.4879 66.9137 19.7282 66.4762 19.9006C66.042 20.0696 65.5465 20.1541 64.9897 20.1541ZM72.774 20.1491C72.1575 20.1491 71.6073 19.9917 71.1234 19.6768C70.6428 19.3587 70.265 18.9062 69.9899 18.3196C69.7181 17.7296 69.5822 17.022 69.5822 16.1967C69.5822 15.3714 69.7198 14.6655 69.9949 14.0788C70.2733 13.4922 70.6544 13.0431 71.1383 12.7315C71.6222 12.42 72.1708 12.2642 72.7839 12.2642C73.2579 12.2642 73.639 12.3438 73.9274 12.5028C74.219 12.6586 74.4444 12.8409 74.6035 13.0497C74.7659 13.2585 74.8919 13.4425 74.9814 13.6016H75.0708V9.81818H76.5574V20H75.1056V18.8118H74.9814C74.8919 18.9742 74.7626 19.1598 74.5936 19.3686C74.4279 19.5774 74.1992 19.7597 73.9075 19.9155C73.6158 20.0713 73.238 20.1491 72.774 20.1491ZM73.1021 18.8814C73.5297 18.8814 73.8909 18.7687 74.1859 18.5433C74.4842 18.3146 74.7096 17.9981 74.862 17.5938C75.0178 17.1894 75.0957 16.7187 75.0957 16.1818C75.0957 15.6515 75.0195 15.1875 74.867 14.7898C74.7145 14.392 74.4908 14.0821 74.1958 13.8601C73.9009 13.638 73.5363 13.527 73.1021 13.527C72.6547 13.527 72.2818 13.643 71.9835 13.875C71.6852 14.107 71.4598 14.4235 71.3074 14.8246C71.1582 15.2256 71.0836 15.678 71.0836 16.1818C71.0836 16.6922 71.1599 17.1513 71.3123 17.5589C71.4648 17.9666 71.6902 18.2898 71.9885 18.5284C72.2901 18.7637 72.6613 18.8814 73.1021 18.8814ZM82.5034 20V9.81818H83.9899V13.6016H84.0794C84.1655 13.4425 84.2898 13.2585 84.4522 13.0497C84.6146 12.8409 84.84 12.6586 85.1284 12.5028C85.4167 12.3438 85.7979 12.2642 86.2718 12.2642C86.8883 12.2642 87.4385 12.42 87.9224 12.7315C88.4063 13.0431 88.7858 13.4922 89.0609 14.0788C89.3393 14.6655 89.4785 15.3714 89.4785 16.1967C89.4785 17.022 89.341 17.7296 89.0659 18.3196C88.7908 18.9062 88.4129 19.3587 87.9324 19.6768C87.4518 19.9917 86.9032 20.1491 86.2868 20.1491C85.8227 20.1491 85.4432 20.0713 85.1483 19.9155C84.8566 19.7597 84.6279 19.5774 84.4622 19.3686C84.2965 19.1598 84.1689 18.9742 84.0794 18.8118H83.9551V20H82.5034ZM83.96 16.1818C83.96 16.7187 84.0379 17.1894 84.1937 17.5938C84.3495 17.9981 84.5749 18.3146 84.8699 18.5433C85.1648 18.7687 85.5261 18.8814 85.9537 18.8814C86.3978 18.8814 86.769 18.7637 87.0673 18.5284C87.3656 18.2898 87.591 17.9666 87.7434 17.5589C87.8992 17.1513 87.9771 16.6922 87.9771 16.1818C87.9771 15.678 87.9009 15.2256 87.7484 14.8246C87.5993 14.4235 87.3739 14.107 87.0723 13.875C86.774 13.643 86.4011 13.527 85.9537 13.527C85.5228 13.527 85.1582 13.638 84.8599 13.8601C84.5649 14.0821 84.3412 14.392 84.1887 14.7898C84.0363 15.1875 83.96 15.6515 83.96 16.1818ZM91.8276 22.8636C91.6055 22.8636 91.4033 22.8454 91.2211 22.8089C91.0388 22.7758 90.9029 22.7393 90.8134 22.6996L91.1713 21.4815C91.4431 21.5545 91.6851 21.5859 91.8972 21.576C92.1093 21.5661 92.2966 21.4865 92.459 21.3374C92.6247 21.1882 92.7705 20.9446 92.8965 20.6065L93.0804 20.0994L90.2864 12.3636H91.8773L93.8113 18.2898H93.8908L95.8248 12.3636H97.4206L94.2736 21.0192C94.1278 21.4169 93.9422 21.7533 93.7168 22.0284C93.4914 22.3068 93.223 22.5156 92.9114 22.6548C92.5998 22.794 92.2386 22.8636 91.8276 22.8636Z" fill="#1C2024"/>
<path d="M103 19.9973V7.67108H105.514V14.7398H105.585L108.345 11.2758H111.159L108.099 14.8629L111.387 19.9973H108.592L106.622 16.6036L105.514 17.8521V19.9973H103Z" fill="#1C2024"/>
<path d="M111.93 19.9973V11.2758H114.04L114.216 12.3835H114.286C114.661 12.0319 115.072 11.7271 115.517 11.4692C115.962 11.1996 116.484 11.0648 117.082 11.0648C118.032 11.0648 118.717 11.3754 119.139 11.9967C119.573 12.618 119.79 13.4796 119.79 14.5815V19.9973H117.205V14.9156C117.205 14.2826 117.117 13.8489 116.941 13.6144C116.777 13.38 116.508 13.2627 116.132 13.2627C115.804 13.2627 115.523 13.3389 115.288 13.4913C115.054 13.632 114.796 13.8371 114.515 14.1067V19.9973H111.93Z" fill="#1C2024"/>
<path d="M125.035 20.2083C124.484 20.2083 123.95 20.1087 123.434 19.9094C122.919 19.6984 122.461 19.3995 122.063 19.0126C121.676 18.6258 121.365 18.151 121.131 17.5883C120.896 17.0139 120.779 16.3633 120.779 15.6365C120.779 14.9097 120.896 14.265 121.131 13.7023C121.365 13.1279 121.676 12.6473 122.063 12.2604C122.461 11.8736 122.919 11.5805 123.434 11.3813C123.95 11.1703 124.484 11.0648 125.035 11.0648C125.586 11.0648 126.113 11.1703 126.617 11.3813C127.133 11.5805 127.584 11.8736 127.971 12.2604C128.37 12.6473 128.686 13.1279 128.921 13.7023C129.155 14.265 129.272 14.9097 129.272 15.6365C129.272 16.3633 129.155 17.0139 128.921 17.5883C128.686 18.151 128.37 18.6258 127.971 19.0126C127.584 19.3995 127.133 19.6984 126.617 19.9094C126.113 20.1087 125.586 20.2083 125.035 20.2083ZM125.035 18.1159C125.562 18.1159 125.961 17.8931 126.23 17.4477C126.5 17.0022 126.635 16.3985 126.635 15.6365C126.635 14.8746 126.5 14.2709 126.23 13.8254C125.961 13.38 125.562 13.1572 125.035 13.1572C124.495 13.1572 124.091 13.38 123.821 13.8254C123.563 14.2709 123.434 14.8746 123.434 15.6365C123.434 16.3985 123.563 17.0022 123.821 17.4477C124.091 17.8931 124.495 18.1159 125.035 18.1159Z" fill="#1C2024"/>
<path d="M134.137 20.2083C133.528 20.2083 132.959 20.1087 132.432 19.9094C131.916 19.6984 131.465 19.3995 131.078 19.0126C130.691 18.6258 130.386 18.151 130.164 17.5883C129.941 17.0139 129.829 16.3633 129.829 15.6365C129.829 14.9097 129.953 14.265 130.199 13.7023C130.445 13.1279 130.773 12.6473 131.183 12.2604C131.605 11.8736 132.092 11.5805 132.643 11.3813C133.194 11.1703 133.768 11.0648 134.366 11.0648C134.905 11.0648 135.38 11.1527 135.79 11.3285C136.212 11.5043 136.587 11.7271 136.916 11.9967L135.702 13.6672C135.292 13.3272 134.899 13.1572 134.524 13.1572C133.891 13.1572 133.393 13.38 133.03 13.8254C132.666 14.2709 132.485 14.8746 132.485 15.6365C132.485 16.3985 132.666 17.0022 133.03 17.4477C133.405 17.8931 133.874 18.1159 134.436 18.1159C134.718 18.1159 134.987 18.0572 135.245 17.94C135.515 17.8111 135.767 17.6587 136.001 17.4828L137.021 19.1709C136.587 19.546 136.119 19.8156 135.614 19.9797C135.11 20.1321 134.618 20.2083 134.137 20.2083Z" fill="#1C2024"/>
<path d="M137.844 19.9973V7.67108H140.359V14.7398H140.429L143.19 11.2758H146.003L142.943 14.8629L146.232 19.9973H143.436L141.466 16.6036L140.359 17.8521V19.9973H137.844Z" fill="#1C2024"/>
<path d="M146.831 8.27478C146.831 9.41606 145.906 10.3413 144.764 10.3413C143.623 10.3413 142.698 9.41606 142.698 8.27478C142.698 7.1335 143.623 6.20831 144.764 6.20831C145.906 6.20831 146.831 7.1335 146.831 8.27478Z" fill="#E54D2E"/>
</g>
<defs>
<filter id="filter0_bdddd_137_11400" x="-18" y="-24" width="201.831" height="78" filterUnits="userSpaceOnUse" color-interpolation-filters="sRGB">
<feFlood flood-opacity="0" result="BackgroundImageFix"/>
<feGaussianBlur in="BackgroundImageFix" stdDeviation="12.5"/>
<feComposite in2="SourceAlpha" operator="in" result="effect1_backgroundBlur_137_11400"/>
<feColorMatrix in="SourceAlpha" type="matrix" values="0 0 0 0 0 0 0 0 0 0 0 0 0 0 0 0 0 0 127 0" result="hardAlpha"/>
<feOffset dy="1"/>
<feGaussianBlur stdDeviation="1"/>
<feColorMatrix type="matrix" values="0 0 0 0 0.109804 0 0 0 0 0.12549 0 0 0 0 0.141176 0 0 0 0.06 0"/>
<feBlend mode="normal" in2="effect1_backgroundBlur_137_11400" result="effect2_dropShadow_137_11400"/>
<feColorMatrix in="SourceAlpha" type="matrix" values="0 0 0 0 0 0 0 0 0 0 0 0 0 0 0 0 0 0 127 0" result="hardAlpha"/>
<feOffset dy="4"/>
<feGaussianBlur stdDeviation="2"/>
<feColorMatrix type="matrix" values="0 0 0 0 0.109804 0 0 0 0 0.12549 0 0 0 0 0.141176 0 0 0 0.05 0"/>
<feBlend mode="normal" in2="effect2_dropShadow_137_11400" result="effect3_dropShadow_137_11400"/>
<feColorMatrix in="SourceAlpha" type="matrix" values="0 0 0 0 0 0 0 0 0 0 0 0 0 0 0 0 0 0 127 0" result="hardAlpha"/>
<feOffset dy="9"/>
<feGaussianBlur stdDeviation="3"/>
<feColorMatrix type="matrix" values="0 0 0 0 0.109804 0 0 0 0 0.12549 0 0 0 0 0.141176 0 0 0 0.03 0"/>
<feBlend mode="normal" in2="effect3_dropShadow_137_11400" result="effect4_dropShadow_137_11400"/>
<feColorMatrix in="SourceAlpha" type="matrix" values="0 0 0 0 0 0 0 0 0 0 0 0 0 0 0 0 0 0 127 0" result="hardAlpha"/>
<feOffset dy="16"/>
<feGaussianBlur stdDeviation="3.5"/>
<feColorMatrix type="matrix" values="0 0 0 0 0.109804 0 0 0 0 0.12549 0 0 0 0 0.141176 0 0 0 0.01 0"/>
<feBlend mode="normal" in2="effect4_dropShadow_137_11400" result="effect5_dropShadow_137_11400"/>
<feBlend mode="normal" in="SourceGraphic" in2="effect5_dropShadow_137_11400" result="shape"/>
</filter>
</defs>
</svg>
